# xmcd
#
# Track frame offsets:
#	150
#	16430
#	34876
#	53173
#	71594
#	90392
#	105089
#	117798
#	138441
#	152496
#	167584
#	182737
#	215147
#
# Disc length: 3210 seconds
# Revision: 0
# Processed by: cddbd v1.5.2PL0 Copyright (c) Steve Scherf et al.
# Submitted via: dBpowerAMP V12.0
#
DISCID=a50c880d
DTITLE=Various Artist - Tradition | Innovation
DYEAR=2012
DGENRE=Blues
TTITLE0=Eden Brent - Later Than You Think
TTITLE1=Asylum Street Spankers - Never Goin' Back
TTITLE2=The Soul of John Black - My Brother
TTITLE3=Mary Flower - I'm Dreaming of Your Demise
TTITLE4=Fiona Boyes - Got My Eye on You
TTITLE5=Mark Lemhouse - Edwin's Lament
TTITLE6=Woodbrain - Turpentine
TTITLE7=Big Joe Duskin - Mean and Strange
TTITLE8=Terry Robb - Madison Ave. Shuffle
TTITLE9=Bluff City Backsliders - Saint James Infirmary
TTITLE10=Chris Cotton - Come On
TTITLE11=Calvin Newborn - The Streetwalker's Stroll
TTITLE12=William Lee Ellis - Dust Will Write My Name
EXTD=
EXTT0=
EXTT1=
EXTT2=
EXTT3=
EXTT4=
EXTT5=
EXTT6=
EXTT7=
EXTT8=
EXTT9=
EXTT10=
EXTT11=
EXTT12=
PLAYORDER=
